:SAMPLES-PER-SECOND 30
:FULLY-SPECIFIED
:DEGREES
731
root  -49.5096 38.6245 0.338948 71.3569 85.1457 74.3354
RightUpLeg  16.9657 -1.6798 -5.78564
RightLeg  17.5579 6.15522 1.19864
RightFoot  -23.7074 0.0471592 1.91633
RightToes  -1.74624e-010 0 -3.6325e-017
Spine  5.44303 1.87206 3.78624
Spine1  7.5186 4.3789 -8.9838
HEad  -15.6301 -6.17411 0.445695
LeftShoulder1  -0.544252 4.89042 -33.116
LeftArm  -4.73907 22.5154 -34.2136
LeftForeArm  35.5949 -8.54511 -7.49005
LeftHand  -0.069504 7.17953 -1.81428
RightShoulder  -0.94847 -6.12126 29.6685
RightArm  25.2508 11.7726 52.1124
RightForeArm  11.4421 15.5081 6.75336
RightHand  -0.184416 4.51887 -2.44707
LeftUpLeg  -20.7979 2.46876 -5.24889
LeftLeg  16.1037 3.38352 1.30804
LeftFoot  6.40001 -0.378876 2.20529
LeftToes  2.27646e-009 -8.13696e-011 -1.44715e-011
732
root  -48.2435 38.5045 0.126146 72.4014 84.2712 75.773
RightUpLeg  16.8581 1.79879 -6.14737
RightLeg  22.4996 3.90071 1.66578
RightFoot  -22.8301 0.517702 6.73613
RightToes  -1.74624e-010 0 -3.6325e-017
Spine  5.66809 2.07715 2.85634
Spine1  7.5691 4.7003 -9.84427
HEad  -15.3336 -6.36113 0.21371
LeftShoulder1  -0.526449 4.83695 -33.3383
LeftArm  -5.26487 20.0188 -34.2897
LeftForeArm  36.1119 -7.2104 -7.59184
LeftHand  -0.056281 7.42743 -0.835693
RightShoulder  -0.948762 -6.08862 30.1297
RightArm  17.8795 9.13161 52.812
RightForeArm  19.2806 9.07036 8.20892
RightHand  -0.130507 3.85889 -1.91369
LeftUpLeg  -20.6957 2.19425 -6.64059
LeftLeg  20.6865 3.74575 1.91426
LeftFoot  4.11813 -0.60593 4.282
LeftToes  2.27646e-009 -8.13696e-011 -1.44715e-011
733
root  -47.07 38.5013 -0.124441 69.63 83.2857 73.3744
RightUpLeg  14.5535 2.62658 -7.8263
RightLeg  30.5231 4.70012 2.75918
RightFoot  -19.0352 0.683394 12.4378
RightToes  -1.74624e-010 0 -3.6325e-017
Spine  5.86129 2.38064 2.1133
Spine1  7.91092 5.10185 -11.1699
HEad  -14.8231 -6.74331 -0.362459
LeftShoulder1  -0.541811 4.8749 -33.3549
LeftArm  -6.04562 17.2997 -35.0488
LeftForeArm  37.4947 -6.56163 -7.3742
LeftHand  -0.0711418 7.43579 -1.55343
RightShoulder  -0.940449 -6.05822 30.2337
RightArm  14.0714 6.31696 53.7091
RightForeArm  24.0331 3.64913 7.86414
RightHand  -0.0587983 2.66053 -0.984825
LeftUpLeg  -19.3407 2.29777 -7.96463
LeftLeg  22.7326 4.46908 2.38841
LeftFoot  1.63343 -0.654304 5.65267
LeftToes  2.27646e-009 -8.13696e-011 -1.44715e-011
734
root  -45.9483 38.6284 -0.333877 66.7613 82.709 70.4572
RightUpLeg  9.68096 3.62075 -8.90422
RightLeg  40.6645 4.53413 3.87561
RightFoot  -10.1726 -0.162836 14.6915
RightToes  -1.74624e-010 0 -3.6325e-017
Spine  6.24291 2.44486 0.551412
Spine1  7.14262 4.71012 -10.4337
HEad  -14.5597 -6.71247 -1.30002
LeftShoulder1  -0.598166 5.00718 -33.6288
LeftArm  -6.42761 14.9841 -35.9913
LeftForeArm  37.6163 -7.01703 -7.28233
LeftHand  -0.0907717 7.52166 -2.43607
RightShoulder  -0.897708 -5.9661 29.87
RightArm  12.7185 3.32522 54.1214
RightForeArm  27.4696 0.960324 7.33111
RightHand  0.0449374 1.08225 0.643645
LeftUpLeg  -17.65 2.90138 -8.78669
LeftLeg  23.1502 4.58739 2.49135
LeftFoot  -0.369439 -0.608593 6.34361
LeftToes  2.27646e-009 -8.13696e-011 -1.44715e-011
735
root  -44.8577 38.751 -0.505269 68.0905 82.4342 71.8214
RightUpLeg  3.834 4.30078 -9.49596
RightLeg  50.9171 3.77489 4.62466
RightFoot  0.4149 -1.21396 11.6787
RightToes  -1.74624e-010 0 -3.6325e-017
Spine  6.14378 1.99982 -1.29516
Spine1  7.25824 3.82283 -9.34008
HEad  -15.122 -5.66849 -1.43194
LeftShoulder1  -0.560913 4.92256 -33.3827
LeftArm  -5.83797 12.2756 -37.2759
LeftForeArm  35.8285 -7.9302 -7.60397
LeftHand  -0.0536204 7.16148 -0.917726
RightShoulder  -0.869012 -5.86882 30.136
RightArm  12.8993 0.709693 53.3938
RightForeArm  29.0704 1.39627 7.40962
RightHand  -0.00438619 0.669756 -0.162621
LeftUpLeg  -15.7655 2.67706 -9.45721
LeftLeg  23.2462 4.9198 2.6616
LeftFoot  -2.24509 -0.501607 6.46471
LeftToes  2.27646e-009 -8.13696e-011 -1.44715e-011
736
root  -43.8605 38.8589 -0.667694 66.7141 82.1956 70.6888
RightUpLeg  -1.20025 4.68685 -10.0042
RightLeg  58.1406 3.09301 4.89976
RightFoot  3.37374 -1.32615 10.4001
RightToes  -1.74624e-010 0 -3.6325e-017
Spine  6.18351 1.59769 -3.23446
Spine1  7.88791 2.85494 -8.07733
HEad  -15.8964 -4.83396 -1.75462
LeftShoulder1  -0.584117 4.97646 -33.5074
LeftArm  -4.27229 8.54902 -38.1334
LeftForeArm  34.3417 -9.07617 -8.05308
LeftHand  -0.0580596 7.35383 -0.97717
RightShoulder  -0.868098 -5.8702 30.0775
RightArm  14.2831 -1.58554 52.1215
RightForeArm  27.8917 3.90289 7.8429
RightHand  0.0196613 1.45222 0.229293
LeftUpLeg  -13.7181 2.81625 -9.89259
LeftLeg  23.1757 5.2283 2.78956
LeftFoot  -3.95234 -0.395746 6.49396
LeftToes  2.27646e-009 -8.13696e-011 -1.44715e-011
737
root  -42.8784 39.0375 -0.808205 65.0742 82.8702 69.1278
RightUpLeg  -5.93248 4.48913 -9.47081
RightLeg  62.308 2.33228 4.30408
RightFoot  0.879424 -1.12185 10.5146
RightToes  -1.74624e-010 0 -3.6325e-017
Spine  6.38304 0.963962 -4.17127
Spine1  7.74453 1.70708 -6.74329
HEad  -16.6434 -5.7163 -2.2106
LeftShoulder1  -0.588554 4.98227 -33.654
LeftArm  -2.59795 4.77207 -38.8395
LeftForeArm  32.4222 -10.2337 -8.24159
LeftHand  -0.0458688 7.05701 -0.437071
RightShoulder  -0.86225 -5.86728 29.8754
RightArm  16.8219 -4.11135 50.3237
RightForeArm  24.1368 7.87392 8.22136
RightHand  -0.034793 2.96506 -0.749003
LeftUpLeg  -11.5262 3.5002 -9.31553
LeftLeg  22.4592 4.75542 2.38317
LeftFoot  -5.46356 -0.308967 6.65243
LeftToes  2.27646e-009 -8.13696e-011 -1.44715e-011
738
root  -41.896 39.2226 -0.961869 62.0688 83.2304 66.1839
RightUpLeg  -10.4367 4.26546 -9.16175
RightLeg  63.4251 1.89456 3.57755
RightFoot  0.977011 -0.93295 8.67743
RightToes  -1.74624e-010 0 -3.6325e-017
Spine  6.78984 0.412371 -5.1556
Spine1  6.99412 0.703904 -5.34104
HEad  -16.7772 -6.61138 -2.23219
LeftShoulder1  -0.552023 4.90651 -33.1806
LeftArm  -1.70926 1.32745 -40.0662
LeftForeArm  31.6917 -11.4421 -8.00364
LeftHand  -0.0350115 6.66686 0.322252
RightShoulder  -0.857144 -5.87254 29.5815
RightArm  21.347 -6.40183 48.6629
RightForeArm  19.36 12.1642 7.74485
RightHand  -0.0516286 5.25165 -0.871439
LeftUpLeg  -9.0924 3.87225 -8.90073
LeftLeg  21.2129 4.71861 2.01863
LeftFoot  -6.61652 -0.241032 6.79847
LeftToes  2.27646e-009 -8.13696e-011 -1.44715e-011
739
root  -40.8737 39.392 -1.11864 58.1652 83.7206 62.684
RightUpLeg  -13.6426 3.89732 -8.55903
RightLeg  61.3388 1.52586 2.52828
RightFoot  -0.214894 -0.735554 7.53401
RightToes  -1.74624e-010 0 -3.6325e-017
Spine  7.12355 -0.1715 -5.46716
Spine1  6.67033 -0.0976145 -4.46262
HEad  -16.5169 -6.731 -1.53455
LeftShoulder1  -0.444691 4.65629 -32.4633
LeftArm  -1.42092 -1.65588 -41.3375
LeftForeArm  29.9836 -13.0086 -7.30317
LeftHand  -0.023553 6.31702 1.13161
RightShoulder  -0.872749 -5.93689 29.2753
RightArm  26.0905 -7.82058 47.5727
RightForeArm  14.9936 15.524 6.77857
RightHand  -0.0960204 4.56417 -1.4052
LeftUpLeg  -6.16507 4.23385 -8.30494
LeftLeg  19.8124 4.70761 1.65375
LeftFoot  -7.68933 -0.175888 6.96959
LeftToes  2.27646e-009 -8.13696e-011 -1.44715e-011
740
root  -39.8837 39.4984 -1.26218 53.9999 84.1609 58.8507
RightUpLeg  -16.0198 3.28974 -7.91678
RightLeg  56.3091 1.31129 1.69875
RightFoot  -1.74095 -0.627969 7.3239
RightToes  -1.74624e-010 0 -3.6325e-017
Spine  7.68687 -0.688809 -6.23702
Spine1  5.97681 -1.01786 -2.85103
HEad  -15.8449 -6.91173 -0.959811
LeftShoulder1  -0.381466 4.49716 -32.2417
LeftArm  -0.303159 -4.3723 -42.0532
LeftForeArm  27.1778 -15.0857 -6.47074
LeftHand  -0.02052 6.54242 1.30004
RightShoulder  -0.896846 -6.02767 28.9526
RightArm  29.8147 -8.51446 46.4036
RightForeArm  12.0003 17.7611 5.98568
RightHand  -0.105614 4.18224 -1.56023
LeftUpLeg  -3.55747 4.74826 -7.70391
LeftLeg  18.7638 4.50856 1.28583
LeftFoot  -8.71505 -0.115255 7.30828
LeftToes  2.27646e-009 -8.13696e-011 -1.44715e-011
741
root  -38.9045 39.5533 -1.4003 48.3763 84.2813 53.515
RightUpLeg  -17.4894 2.70781 -7.29466
RightLeg  48.6389 1.22041 1.15745
RightFoot  -2.83099 -0.548966 7.11486
RightToes  -1.74624e-010 0 -3.6325e-017
Spine  8.37684 -1.12574 -6.3882
Spine1  5.23062 -1.56641 -2.20867
HEad  -15.5345 -7.28962 0.194576
LeftShoulder1  -0.311145 4.32678 -31.6882
LeftArm  0.716083 -7.06419 -42.6779
LeftForeArm  24.2866 -17.012 -5.66026
LeftHand  -0.0086443 6.63209 2.36273
RightShoulder  -0.919634 -6.10363 28.7952
RightArm  31.3284 -8.85441 45.7809
RightForeArm  10.5046 18.7422 5.63027
RightHand  -0.139447 3.82412 -2.01098
LeftUpLeg  -1.05416 5.32104 -7.24014
LeftLeg  17.7772 4.42285 0.924293
LeftFoot  -9.79491 -0.0415171 7.42304
LeftToes  2.27646e-009 -8.13696e-011 -1.44715e-011
742
root  -37.8917 39.5566 -1.523 42.6243 84.1241 48.0222
RightUpLeg  -17.9596 1.93642 -6.64245
RightLeg  38.9083 1.22077 0.792246
RightFoot  -3.32039 -0.528036 7.1983
RightToes  -1.74624e-010 0 -3.6325e-017
Spine  8.37148 -1.51864 -6.65235
Spine1  5.39613 -2.04417 -1.44793
HEad  -15.719 -7.35929 1.03633
LeftShoulder1  -0.35038 4.42967 -31.708
LeftArm  1.8036 -10.022 -42.7233
LeftForeArm  21.8423 -18.7863 -4.97572
LeftHand  -0.0199795 5.68349 2.9052
RightShoulder  -0.86718 -5.96514 28.6393
RightArm  31.8233 -8.74156 45.5784
RightForeArm  10.5117 18.9019 5.57522
RightHand  -0.0807705 3.52024 -1.31672
LeftUpLeg  1.49615 5.64423 -7.00137
LeftLeg  16.7206 4.75034 0.761741
LeftFoot  -11.0493 0.0479101 7.27565
LeftToes  2.27646e-009 -8.13696e-011 -1.44715e-011
743
root  -36.8653 39.5403 -1.62957 35.8927 83.4651 41.1747
RightUpLeg  -18.058 1.40795 -5.90205
RightLeg  27.9632 1.62731 0.739601
RightFoot  -3.16098 -0.515747 6.90063
RightToes  -1.74624e-010 0 -3.6325e-017
Spine  7.6625 -1.66257 -6.39442
Spine1  5.99998 -2.0187 -1.40633
HEad  -16.3766 -8.73733 1.18228
LeftShoulder1  -0.342631 4.41391 -31.5166
LeftArm  2.09254 -12.7473 -42.9754
LeftForeArm  20.9296 -20.3345 -4.41496
LeftHand  -0.0162665 5.82901 3.15958
RightShoulder  -0.913856 -6.09576 28.6782
RightArm  32.129 -8.59096 45.8961
RightForeArm  10.4481 18.4874 5.81558
RightHand  -0.135874 3.4079 -2.06403
LeftUpLeg  3.76549 5.94307 -6.94844
LeftLeg  15.4813 5.56133 0.579914
LeftFoot  -12.2572 0.130055 7.03509
LeftToes  2.27646e-009 -8.13696e-011 -1.44715e-011
744
root  -35.8208 39.4943 -1.71718 31.8069 82.6544 36.6772
RightUpLeg  -17.797 0.174919 -4.99061
RightLeg  16.5018 3.41715 0.683087
RightFoot  -3.12239 -0.534271 7.13362
RightToes  -1.74624e-010 0 -3.6325e-017
Spine  7.07282 -1.82541 -6.1766
Spine1  5.98146 -2.05108 -1.20429
HEad  -16.6978 -9.2515 1.23742
LeftShoulder1  -0.354839 4.45098 -31.3129
LeftArm  1.97076 -14.387 -43.0613
LeftForeArm  20.2572 -21.9258 -4.02978
LeftHand  -0.0210274 5.54165 3.65134
RightShoulder  -0.838518 -5.88389 28.6181
RightArm  31.8984 -9.35179 46.3983
RightForeArm  10.0783 18.3466 5.90451
RightHand  -0.131689 5.25164 -1.73816
LeftUpLeg  5.78685 5.94107 -7.21128
LeftLeg  14.0766 6.48327 0.453354
LeftFoot  -13.3163 0.195938 6.71353
LeftToes  2.27646e-009 -8.13696e-011 -1.44715e-011
745
root  -34.7426 39.4046 -1.77098 29.2992 82.0877 33.7568
RightUpLeg  -17.3231 -2.93137 -3.22034
RightLeg  6.07902 6.91142 -0.085974
RightFoot  -3.55259 -0.545463 7.63951
RightToes  -1.74624e-010 0 -3.6325e-017
Spine  6.80422 -1.88868 -5.74792
Spine1  5.53256 -2.03237 -1.03351
HEad  -16.7765 -9.60695 1.37495
LeftShoulder1  -0.309797 4.3387 -30.972
LeftArm  1.84569 -15.3638 -43.4417
LeftForeArm  20.7582 -23.162 -3.92744
LeftHand  -0.0446032 4.66758 3.63591
RightShoulder  -0.900801 -6.03278 29.0361
RightArm  33.2634 -10.4329 46.2583
RightForeArm  10.6689 19.0061 5.61628
RightHand  -0.0901785 4.46911 -1.33713
LeftUpLeg  7.74722 6.03403 -7.33506
LeftLeg  12.8947 6.92249 0.234086
LeftFoot  -14.4342 0.262341 6.47562
LeftToes  2.27646e-009 -8.13696e-011 -1.44715e-011
